<svg version="1.2" baseProfile="tiny-ps" xmlns="http://www.w3.org/2000/svg" viewBox="0 0 1560 1061" width="1560" height="1061">
	<title>globant-logo-dark-svg</title>
	<style>
		tspan { white-space:pre }
		.shp0 { fill: #ffffff } 
		.shp1 { fill: #bfd732 } 
	</style>
	<g id="Layer">
		<path id="Layer" class="shp0" d="M433.87 971.43C167.72 971.43 1.92 744.99 1.92 501.14C1.92 244.22 150.26 35.2 433.87 35.2C643.3 35.2 804.74 157.13 817.83 335.67L634.58 335.67C625.85 252.93 538.59 187.61 438.23 187.61C289.89 187.61 193.9 300.83 193.9 509.85C193.9 653.55 268.07 814.67 438.23 814.67C595.31 814.67 652.03 736.28 652.03 614.36L455.69 614.36L455.69 470.66L822.19 470.66L822.19 618.71C817.83 823.37 726.2 971.43 433.87 971.43Z" />
		<path id="Layer" class="shp1" d="M903.33 5.69C885.88 -7.38 859.7 1.33 846.61 18.75C842.25 27.46 837.89 40.52 842.25 49.23L920.79 162.45C1069.13 384.53 1069.13 676.29 920.79 898.37L842.25 1011.58C837.89 1033.36 846.61 1055.13 868.43 1059.48C877.15 1063.84 890.24 1059.48 898.97 1055.13L1540.36 567.42C1562.17 550 1566.54 519.52 1549.08 497.75C1544.72 493.39 1544.72 489.04 1540.36 489.04L903.33 5.69Z" />
	</g>
</svg>